<?xml version="1.0" encoding="utf-8"?>
<!-- Generator: Adobe Illustrator 26.1.0, SVG Export Plug-In . SVG Version: 6.00 Build 0)  -->
<svg version="1.1" id="Capa_1" xmlns="http://www.w3.org/2000/svg" xmlns:xlink="http://www.w3.org/1999/xlink" x="0px" y="0px"
	 viewBox="0 0 1000 1000" style="enable-background:new 0 0 1000 1000;" xml:space="preserve">
<style type="text/css">
	.st0{fill:#3800FC;}
	.st1{fill:#101820;}
	.st2{fill:#FFFFFF;}
	.st3{fill:#2700B0;}
	.st4{fill:#C8CACC;}
	.st5{fill:#383838;}
</style>
<g>
	<g>
		<path class="st0" d="M514.3,985.8c267.5,0,485.7-218.2,485.7-485.7S781.8,14.3,514.3,14.3C246.7,14.3,28.5,232.5,28.5,500
			S246.7,985.8,514.3,985.8L514.3,985.8z"/>
		<g>
			<rect y="251.8" class="st1" width="415.6" height="496.7"/>
			<path class="st2" d="M49.7,413.9h42.7c5.7,0,10.5,4.7,10.5,10.5v42.7c0,5.7-4.7,10.5-10.5,10.5H49.7c-5.7,0-10.5-4.7-10.5-10.5
				v-42.7C39,418.8,43.7,413.9,49.7,413.9L49.7,413.9z"/>
			<path class="st2" d="M132.6,413.9h42.7c5.7,0,10.5,4.7,10.5,10.5v42.7c0,5.7-4.7,10.5-10.5,10.5h-42.7c-5.7,0-10.5-4.7-10.5-10.5
				v-42.7C122.1,418.8,126.8,413.9,132.6,413.9L132.6,413.9z"/>
			<path class="st0" d="M215.5,413.9h42.7c5.7,0,10.5,4.7,10.5,10.5v42.7c0,5.7-4.7,10.5-10.5,10.5h-42.7c-5.7,0-10.5-4.7-10.5-10.5
				v-42.7C205,418.8,209.8,413.9,215.5,413.9L215.5,413.9z"/>
			<path class="st3" d="M298.4,413.9h42.9c5.7,0,10.5,4.7,10.5,10.5v42.7c0,5.7-4.7,10.5-10.5,10.5h-42.7c-5.7,0-10.5-4.7-10.5-10.5
				v-42.7C288,418.8,292.7,413.9,298.4,413.9L298.4,413.9z"/>
			<path class="st2" d="M49.7,495.2h42.7c5.7,0,10.5,4.7,10.5,10.5v42.7c0,5.7-4.7,10.5-10.5,10.5H49.7c-5.7,0-10.5-4.7-10.5-10.5
				v-42.7C39,499.9,43.7,495.2,49.7,495.2L49.7,495.2z"/>
			<path class="st2" d="M132.6,495.2h42.7c5.7,0,10.5,4.7,10.5,10.5v42.7c0,5.7-4.7,10.5-10.5,10.5h-42.7c-5.7,0-10.5-4.7-10.5-10.5
				v-42.7C122.1,499.9,126.8,495.2,132.6,495.2L132.6,495.2z"/>
			<path class="st2" d="M215.5,495.2h42.7c5.7,0,10.5,4.7,10.5,10.5v42.7c0,5.7-4.7,10.5-10.5,10.5h-42.7c-5.7,0-10.5-4.7-10.5-10.5
				v-42.7C205,499.9,209.8,495.2,215.5,495.2L215.5,495.2z"/>
			<path class="st2" d="M298.4,495.2h42.9c5.7,0,10.5,4.7,10.5,10.5v42.7c0,5.7-4.7,10.5-10.5,10.5h-42.7c-5.7,0-10.5-4.7-10.5-10.5
				v-42.7C288,499.9,292.7,495.2,298.4,495.2L298.4,495.2z"/>
			<path class="st2" d="M49.7,576.2h42.7c5.7,0,10.5,4.7,10.5,10.5v42.7c0,5.7-4.7,10.5-10.5,10.5H49.7c-5.7,0-10.5-4.7-10.5-10.5
				v-42.7C39,580.9,43.7,576.2,49.7,576.2L49.7,576.2z"/>
			<path class="st2" d="M132.6,576.2h42.7c5.7,0,10.5,4.7,10.5,10.5v42.7c0,5.7-4.7,10.5-10.5,10.5h-42.7c-5.7,0-10.5-4.7-10.5-10.5
				v-42.7C122.1,580.9,126.8,576.2,132.6,576.2L132.6,576.2z"/>
			<path class="st2" d="M215.5,576.2h42.7c5.7,0,10.5,4.7,10.5,10.5v42.7c0,5.7-4.7,10.5-10.5,10.5h-42.7c-5.7,0-10.5-4.7-10.5-10.5
				v-42.7C205,580.9,209.8,576.2,215.5,576.2L215.5,576.2z"/>
			<path class="st2" d="M298.4,576.2h42.9c5.7,0,10.5,4.7,10.5,10.5v42.7c0,5.7-4.7,10.5-10.5,10.5h-42.7c-5.7,0-10.5-4.7-10.5-10.5
				v-42.7C288,580.9,292.7,576.2,298.4,576.2L298.4,576.2z"/>
			<path class="st2" d="M49.7,657.5h42.7c5.7,0,10.5,4.7,10.5,10.5v42.7c0,5.7-4.7,10.5-10.5,10.5H49.7c-5.7,0-10.5-4.7-10.5-10.5
				V668C39,662.2,43.7,657.5,49.7,657.5L49.7,657.5z"/>
			<path class="st2" d="M132.6,657.5h42.7c5.7,0,10.5,4.7,10.5,10.5v42.7c0,5.7-4.7,10.5-10.5,10.5h-42.7c-5.7,0-10.5-4.7-10.5-10.5
				V668C122.1,662.2,126.8,657.5,132.6,657.5L132.6,657.5z"/>
			<path class="st2" d="M215.5,657.5h42.7c5.7,0,10.5,4.7,10.5,10.5v42.7c0,5.7-4.7,10.5-10.5,10.5h-42.7c-5.7,0-10.5-4.7-10.5-10.5
				V668C205,662.2,209.8,657.5,215.5,657.5L215.5,657.5z"/>
			<path class="st2" d="M298.4,657.5h42.9c5.7,0,10.5,4.7,10.5,10.5v42.7c0,5.7-4.7,10.5-10.5,10.5h-42.7c-5.7,0-10.5-4.7-10.5-10.5
				V668C288,662.2,292.7,657.5,298.4,657.5L298.4,657.5z"/>
			<rect x="28.2" y="277.8" class="st4" width="359.1" height="79.4"/>
			<path class="st5" d="M350.4,293c4.6,0,8.6,1.9,11.7,4.9l0,0l0,0c3,3,4.9,7.1,4.9,11.7v12c0,4.6-1.9,8.6-4.9,11.7
				c-3,3-7.1,4.9-11.7,4.9s-8.6-1.9-11.7-4.9l0,0c-3-3-4.9-7.1-4.9-11.7v-12c0-4.6,1.9-8.6,4.9-11.7S345.9,293,350.4,293L350.4,293z
				 M357.9,301.9c-1.9-1.9-4.6-3-7.4-3c-2.9,0-5.6,1.2-7.4,3c-1.9,1.9-3,4.6-3,7.4v12c0,2.9,1.2,5.6,3,7.4c1.9,1.9,4.6,3,7.4,3
				c2.9,0,5.6-1.2,7.4-3c1.9-1.9,3-4.6,3-7.4v-12C361.1,306.5,359.9,303.8,357.9,301.9L357.9,301.9L357.9,301.9z"/>
		</g>
	</g>
</g>
<g>
	<path class="st2" d="M653.8,592.6c0,58.3,47.3,105.6,105.6,105.6S865,650.9,865,592.6S817.7,487,759.4,487
		C701.1,487,653.8,534.3,653.8,592.6L653.8,592.6z M718.1,551.4c2.5-2.5,6.2-4.1,10-4.1c3.7,0,7.3,1.5,10,4.1
		c2.7,2.5,4.1,6.2,4.1,10c0,3.7-1.5,7.3-4.1,10c-2.7,2.5-6.2,4.1-10,4.1c-3.7,0-7.3-1.5-10-4.1c-2.7-2.5-4.1-6.2-4.1-10
		C714.1,557.6,715.4,553.9,718.1,551.4L718.1,551.4z M800.5,633.8c-2.5,2.5-6.2,4.1-10,4.1c-3.7,0-7.3-1.5-10-4.1
		c-2.7-2.5-4.1-6.2-4.1-10c0-3.7,1.5-7.3,4.1-10c2.5-2.5,6.2-4.1,10-4.1c3.7,0,7.3,1.5,10,4.1c2.7,2.5,4.1,6.2,4.1,10
		S803.2,631.1,800.5,633.8L800.5,633.8z M800.4,551.6c5.4,5.6,5.4,14.4,0,19.9l-62.2,62.2c-2.7,2.7-6.4,4.1-10,4.1
		c-3.5,0-7.3-1.4-10-4.1c-5.6-5.6-5.6-14.4,0-19.9l62.2-62.2C786,546,795,546,800.4,551.6L800.4,551.6z"/>
	<path class="st2" d="M625.7,592.6c0-73.6,60-133.6,133.6-133.6c2.4,0,4.9,0,7.3,0.2V313.1c0-7.8-6.2-14-14-14H513.1
		c-7.8,0-14,6.2-14,14v373.2c0,7.8,6.2,14,14,14h167.4C647.2,676,625.7,636.8,625.7,592.6L625.7,592.6z M578.4,373.7h99.5
		c7.8,0,14,6.2,14,14s-6.2,14-14,14h-99.5c-7.8,0-14-6.2-14-14C564.4,380,570.7,373.7,578.4,373.7L578.4,373.7z M578.4,448.4h99.5
		c7.8,0,14,6.2,14,14s-6.2,14-14,14h-99.5c-7.8,0-14-6.2-14-14S570.7,448.4,578.4,448.4L578.4,448.4z M603.3,551.1h-24.8
		c-7.8,0-14-6.2-14-14s6.2-14,14-14h24.8c7.8,0,14,6.2,14,14C617.3,544.8,611,551.1,603.3,551.1L603.3,551.1z"/>
</g>
</svg>
